<?xml version="1.0" encoding="iso-8859-1"?>
<!-- Uploaded to: SVG Repo, www.svgrepo.com, Generator: SVG Repo Mixer Tools -->
<svg height="800px" width="800px" version="1.1" id="Layer_1" xmlns="http://www.w3.org/2000/svg" xmlns:xlink="http://www.w3.org/1999/xlink" 
	 viewBox="0 0 512.001 512.001" xml:space="preserve">
<g>
	<g>
		<path style="fill:#F8B7C2;" d="M188.666,408.515l-39.08,4.281l-22.961,50.123c-7.857,17.17,0.035,37.658,17.638,45.771
			c17.602,8.121,38.241,0.786,46.098-16.375l21.354-46.618l0.221-0.477L188.666,408.515z"/>
		<path style="fill:#F8B7C2;" d="M440.599,5.942c-51.615-18.3-107.926,7.177-130.154,55.702l-55.693,121.582l-24.241,52.913
			c7.548-4.255,16.234-6.691,25.485-6.691c14.733,0,28.019,6.153,37.544,16.022c4.776-5.482,13.312-18.097,24.126-31.055
			l0.821-1.801l56.311-122.933c7.433-16.216,26.209-25.141,43.485-19.076c19.827,6.965,29.202,28.928,20.877,47.086l-3.558,7.768
			c-7.865,17.17,0.035,37.658,17.629,45.771c17.602,8.121,38.241,0.786,46.106-16.375l3.558-7.777
			C527.807,92.709,499.832,26.943,440.599,5.942"/>
	</g>
	<path style="fill:#F96C7E;" d="M362.942,413.962l-45.533-5.447l-18.105,35.046l0.98,2.136l21.354,46.61
		c7.857,17.17,28.504,24.505,46.098,16.384c17.602-8.113,25.494-28.601,17.638-45.771L362.942,413.962z"/>
	<path style="fill:#BE3A2B;" d="M94.267,201.502c6.179-11.467,18.556-24.479,42.946-24.947c35.558-0.68,69.597,55.561,81.267,68.943
		c-9.19,9.525-14.892,22.493-14.892,36.837c0,9.613,2.737,18.503,7.177,26.271c0,53.389-71.548,88.585-101.526,58.341
		c-22.705-22.908-19.394-97.174-20.754-114.114C87.655,242.506,89.209,210.886,94.267,201.502"/>
	<g>
		<path style="fill:#922C25;" d="M203.577,291.156c-1.854,0-3.725-0.583-5.323-1.783l-41.931-31.726
			c-3.884-2.948-4.652-8.483-1.713-12.367c2.948-3.893,8.466-4.652,12.367-1.721l41.931,31.726
			c3.893,2.948,4.661,8.483,1.721,12.376C208.891,289.947,206.252,291.156,203.577,291.156"/>
		<path style="fill:#922C25;" d="M161.664,322.889c-2.675,0-5.314-1.209-7.053-3.496c-2.94-3.893-2.172-9.428,1.721-12.376
			l41.931-31.735c3.884-2.931,9.419-2.18,12.367,1.721c2.94,3.884,2.172,9.419-1.713,12.367l-41.931,31.735
			C165.389,322.306,163.518,322.889,161.664,322.889"/>
	</g>
	<path style="fill:#BE3A2B;" d="M417.733,201.502c-6.179-11.467-18.556-24.479-42.946-24.947
		c-35.558-0.68-69.597,55.561-81.267,68.943c9.19,9.525,14.892,22.493,14.892,36.837c0,9.613-2.737,18.503-7.177,26.271
		c0,53.389,71.548,88.585,101.526,58.341c22.705-22.908,19.394-97.174,20.754-114.114
		C424.345,242.506,422.791,210.886,417.733,201.502"/>
	<g>
		<path style="fill:#922C25;" d="M308.423,291.156c-2.675,0-5.314-1.209-7.053-3.496c-2.94-3.893-2.172-9.428,1.721-12.376
			l41.931-31.726c3.884-2.931,9.419-2.172,12.367,1.721c2.94,3.884,2.172,9.419-1.713,12.367l-41.931,31.726
			C312.148,290.574,310.276,291.156,308.423,291.156"/>
		<path style="fill:#922C25;" d="M350.336,322.889c-1.854,0-3.725-0.583-5.323-1.783l-41.931-31.735
			c-3.884-2.948-4.652-8.483-1.713-12.367c2.948-3.902,8.474-4.652,12.367-1.721l41.931,31.735
			c3.893,2.948,4.661,8.483,1.721,12.376C355.65,321.679,353.011,322.889,350.336,322.889"/>
		<path style="fill:#922C25;" d="M301.235,308.607L301.235,308.607c-9.057,15.837-25.812,26.615-45.233,26.615
			s-36.184-10.778-45.241-26.615l0,0c0,26.156-17.196,47.881-38.232,59.745l-39.009,46.212l55.146-6.047l32.026,50.52l35.31-105.931
			l35.31,105.931l26.094-50.52l53.354,6.382l-39.768-52.074C314.017,350.326,301.235,331.126,301.235,308.607"/>
	</g>
	<path style="fill:#F97B76;" d="M308.414,282.333c0,29.21-23.464,52.886-52.409,52.886c-28.954,0-52.418-23.676-52.418-52.886
		s23.464-52.886,52.418-52.886C284.95,229.447,308.414,253.123,308.414,282.333"/>
	<path style="fill:#F96C7E;" d="M93.714,70.608c17.276-6.065,36.061,2.851,43.494,19.076l56.311,122.933l0.821,1.792
		c10.805,12.959,19.341,25.574,24.117,31.064c3.54-3.672,7.592-6.824,12.059-9.34l24.241-52.904l1.245-2.728L201.56,61.648
		C179.332,13.123,123.021-12.354,71.397,5.946C12.173,26.938-15.801,92.712,9.101,147.081l3.558,7.768
		c7.865,17.161,28.504,24.497,46.106,16.384c17.602-8.113,25.494-28.61,17.629-45.771l-3.558-7.768
		C64.521,99.536,73.896,77.564,93.714,70.608"/>
	<g>
		<path style="fill:#F8B7C2;" d="M59.664,42.303c-11.617-4.299-24.311-4.855-36.732-1.739c-4.961,6.268-9.181,13.003-12.579,20.109
			c2.322,1.201,5.094,1.474,7.662,0.282c11.82-5.447,24.426-6.206,35.522-2.092c9.949,3.681,17.611,10.867,22.148,20.789
			c0.459,1.006,1.13,1.836,1.871,2.569c3.54-4.458,8.218-8.095,13.859-10.531C84.92,57.928,73.691,47.502,59.664,42.303"/>
		<path style="fill:#F8B7C2;" d="M78.829,133.756c-0.477-2.807-1.192-5.597-2.436-8.298l-3.558-7.768
			c-1.457-3.178-2.189-6.488-2.595-9.807c-1.28-0.636-2.516-1.306-3.919-1.827c-16.737-6.197-41.772-3.399-65.916,7.133
			c0.459,5.879,1.483,11.741,3.01,17.549c0.583-0.132,1.165-0.15,1.73-0.406c20.533-9.463,42.143-12.509,55.04-7.715
			c4.158,1.536,6.912,3.734,8.183,6.515c1.483,3.24,4.687,5.155,8.033,5.155C77.214,134.286,78.026,133.985,78.829,133.756"/>
		<path style="fill:#F8B7C2;" d="M133.07,3.767c-6.241-1.704-12.65-2.825-19.156-3.346c-0.177,1.545-0.097,3.116,0.591,4.634
			c10.664,23.27,6.727,48.905-8.589,55.967c-3.213,1.483-5.058,4.652-5.076,7.971c6.903-0.839,13.718,0.547,19.747,3.602
			C138.145,59.16,143.389,31.397,133.07,3.767"/>
		<path style="fill:#F8B7C2;" d="M201.556,61.644c-4.626-10.108-10.805-19.138-18.035-27.057c-2.913,2.498-4.043,6.603-2.375,10.258
			c13.056,28.522-0.194,62.729-29.546,76.279l7.353,16.049c0.009-0.009,0.018-0.009,0.026-0.009
			c28.566-13.171,45.347-41.525,44.826-70.612L201.556,61.644z"/>
	</g>
	<g>
		<path style="fill:#F96C7E;" d="M445.681,106.053c-1.404,0.521-2.639,1.192-3.919,1.827c-0.406,3.319-1.139,6.63-2.595,9.816
			l-3.566,7.768c-1.236,2.701-1.951,5.482-2.428,8.289c0.803,0.238,1.615,0.53,2.419,0.53c3.354,0,6.559-1.916,8.042-5.155
			c1.271-2.781,4.025-4.979,8.174-6.515c12.906-4.793,34.516-1.748,55.049,7.715c0.565,0.256,1.148,0.274,1.73,0.406
			c1.527-5.809,2.551-11.67,3.01-17.549C487.435,102.655,462.392,99.856,445.681,106.053"/>
		<path style="fill:#F96C7E;" d="M489.068,40.567c-12.42-3.116-25.114-2.569-36.732,1.739
			c-14.027,5.191-25.256,15.625-31.753,29.387c5.641,2.428,10.319,6.065,13.859,10.522c0.742-0.733,1.412-1.554,1.871-2.56
			c4.537-9.922,12.2-17.108,22.148-20.789c11.07-4.105,23.684-3.363,35.522,2.092c2.569,1.183,5.332,0.909,7.662-0.291
			C498.239,53.561,494.029,46.825,489.068,40.567"/>
		<path style="fill:#F96C7E;" d="M411.161,68.995c-0.018-3.319-1.863-6.497-5.076-7.98c-15.316-7.053-19.262-32.689-8.598-55.958
			c0.697-1.518,0.777-3.09,0.6-4.634c-6.515,0.521-12.915,1.642-19.156,3.346c-10.319,27.63-5.076,55.393,12.482,68.829
			C397.443,69.542,404.257,68.156,411.161,68.995"/>
		<path style="fill:#F96C7E;" d="M330.853,44.846c1.668-3.655,0.538-7.759-2.375-10.258c-7.23,7.918-13.409,16.949-18.035,27.057
			l-2.251,4.908c-0.521,29.087,16.26,57.441,44.827,70.612c0.009,0,0.018,0,0.026,0.009l7.353-16.049
			C331.048,107.575,317.797,73.368,330.853,44.846"/>
	</g>
</g>
</svg>