<svg clip-rule="evenodd" fill-rule="evenodd" image-rendering="optimizeQuality" shape-rendering="geometricPrecision" text-rendering="geometricPrecision" viewBox="0 0 2667 2667" xmlns="http://www.w3.org/2000/svg"><g id="Layer_x0020_1"><circle cx="1333" cy="1333" fill="#7ed63f" r="1333"/><path d="m1038 1203 121 210 436-435 3-3c22-21 51-32 80-32 30 0 61 12 84 35 1 0 1 1 2 2 21 23 32 52 32 81 0 30-11 60-34 83l-1 1-544 544-1 1c-1 1-1 1-2 2-23 21-52 31-81 31-30 0-60-11-83-34l-1-1c-5-5-9-10-13-17-4-5-7-11-10-17l-192-333c-1-1-2-2-2-4-26-47-16-91 9-124 10-13 23-23 36-31 14-8 29-13 45-15 43-7 88 8 116 56zm-186-351c123-124 293-200 481-200s359 76 482 200c123 123 200 293 200 481s-77 359-200 482-294 200-482 200-358-77-481-200c-124-123-200-294-200-482s76-358 200-481zm1085-122c-155-154-368-250-604-250-235 0-449 96-603 250s-250 368-250 603c0 236 96 449 250 604 154 154 368 250 603 250 236 0 449-96 604-250 154-155 250-368 250-604 0-235-96-449-250-603z" fill="#fefefe" fill-rule="nonzero"/></g></svg>