<svg width="2667" height="2667" xmlns="http://www.w3.org/2000/svg" clip-rule="evenodd">

 <g>
  <title>background</title>
  <rect fill="none" id="canvas_background" height="402" width="582" y="-1" x="-1"/>
 </g>
 <g>
  <title>Layer 1</title>
  <g fill="#7AD6CA" id="Layer_x0020_1">
   <circle id="svg_1" r="1333" fill="#ff0000" cy="1263.222222" cx="1419.111111"/>
   <path stroke="null" id="svg_2" fill-rule="nonzero" fill="#ff0000" d="m1124.111111,1133.222222l121,210l436,-435l3,-3c22,-21 51,-32 80,-32c30,0 61,12 84,35c1,0 1,1 2,2c21,23 32,52 32,81c0,30 -11,60 -34,83l-1,1l-544,544l-1,1c-1,1 -1,1 -2,2c-23,21 -52,31 -81,31c-30,0 -60,-11 -83,-34l-1,-1c-5,-5 -9,-10 -13,-17c-4,-5 -7,-11 -10,-17l-192,-333c-1,-1 -2,-2 -2,-4c-26,-47 -16,-91 9,-124c10,-13 23,-23 36,-31c14,-8 29,-13 45,-15c43,-7 88,8 116,56zm-186,-351c123,-124 293,-200 481,-200s359,76 482,200c123,123 200,293 200,481s-77,359 -200,482s-294,200 -482,200s-358,-77 -481,-200c-124,-123 -200,-294 -200,-482s76,-358 200,-481zm1085,-122c-155,-154 -368,-250 -604,-250c-235,0 -449,96 -603,250s-250,368 -250,603c0,236 96,449 250,604c154,154 368,250 603,250c236,0 449,-96 604,-250c154,-155 250,-368 250,-604c0,-235 -96,-449 -250,-603z"/>
   <rect id="svg_5" height="679.999986" width="917.777759" y="983.708315" x="892.388898" stroke-width="null" fill="#ff0000"/>
   <rect id="svg_6" height="513.333323" width="495.555545" y="810.374985" x="1399.055554" stroke-width="null" fill="#ff0000"/>
  </g>
  <rect transform="rotate(40.06983184814453 1432.3889160156245,1234.8193359375005) " id="svg_7" height="182.222219" width="1653.3333" y="1143.708318" x="605.722241" stroke-width="null" fill="#ffffff"/>
  <rect transform="rotate(135.29721069335938 1401.2778320312502,1250.375) " id="svg_9" height="182.222219" width="1653.3333" y="1159.263875" x="574.611131" stroke-width="null" fill="#ffffff"/>
 </g>
</svg>