<?xml version="1.0" encoding="iso-8859-1"?>
<!DOCTYPE svg PUBLIC "-//W3C//DTD SVG 1.1//EN" "http://www.w3.org/Graphics/SVG/1.1/DTD/svg11.dtd">
<svg fill="#000000" version="1.1" id="Capa_1" xmlns="http://www.w3.org/2000/svg" xmlns:xlink="http://www.w3.org/1999/xlink" 
	 width="800px" height="800px" viewBox="0 0 561.238 561.238"
	 xml:space="preserve">
<g>
	<g>
		<path d="M450.945,278.658c-20.2-11.9-25.1-23.6-14.7-34.6c1.801-2.4-1.8-4.9-4-3.1c-0.899,0.6-1.5,1.5-2.1,2.1
			c-0.6-0.3-1.2-0.6-2.1-0.3c-21.101,4.3-41-3.7-39.801-29.1c0-3.1-3.699-5.5-6.399-3.7c-15.9,11-29.7,4.6-39.8-9.5
			c-0.301-2.4-3.101-4.3-5.2-2.1c-15.9,18.4-36.101,7-50.2-6.1c-2.1-1.8-5.2-1.5-6.7,0.9c-22.3,15-37.6,13.5-45.6-5.2
			c-1.5-2.8-5.5-2.4-7,0c-19.3,17.7-33.7,17.4-42.8-1.2c-0.3-0.6-0.9-0.6-1.5-0.6c-0.9-1.5-3.7-2.1-4.9,0
			c-5.2,10.4-9.5,18.7-20.8,23.3c-11,4.6-23.3,2.1-34-2.1c-4.6-1.8-6.4,4.9-3.1,7.3c24.8,18.4,0,43.8-23.9,36.7
			c-1.2-0.3-2.1,0.6-2.4,1.5c-2.1,1.2-1.8,5.2,0.9,6.1c29.4,10.1,23.9,44.1-5.5,48.299c-4,0.601-3.4,6.4,0,7.7
			c20.5,6.101,20.8,23.601,10.4,38.9c-2.4,3.7,2.4,8.6,6.1,6.1c17.1-11,42.2-12.899,47.1,12.2c-0.6,2.4-0.9,5.2-0.3,7.6
			c0.6,4.301,5.8,5.2,7.3,0.9c3.7-10.1,5.8-18.4,18.1-17.1c7,0.6,13.2,4.899,18.1,10.1c2.8,32.7,28.5,55.7,63,56.9
			c32.4,1.199,62.1-18.7,77.4-46.5c0.3,0.3,0.6,0.3,0.899,0.6c9.5,3.7,18.7,4.6,27.5,10.7c2.4,1.5,6.7,0.6,8-2.101
			c7.3-16.199,22.601-16.8,36.4-10.399c1.5,3.399,3.7,6.7,6.7,9.5c2.399,2.1,6.399-0.601,4.6-3.7c-0.6-1.5-1.5-3.1-2.1-5.2
			c0.6-1.2,0.6-2.399-0.601-3.7c-0.3-0.3-0.3-0.3-0.6-0.6c-4-14.4-3.4-34.9,18.7-28.2c3.399,0.9,5.5-3.399,3.399-5.5
			c-13.5-14.7-23.3-56.899,10.7-59.7C453.945,286.357,455.546,279.858,450.945,278.658z M428.546,344.457
			c-14.4,0.601-22.601,14.7-21.7,28.8c-14.7-7.3-31.8-4.6-41.3,10.101c-7.7-4-15.9-6.101-24.5-7.7c1.5-3.7,2.8-7.6,4-11.6
			c21.1-85.7-120.9-155.4-142.601-56c-1.2,5.8,7,8.3,8.9,2.399c29.4-81.099,135.3-15,118.399,55.101c-7,29.699-37,48.699-65.8,51.1
			c-36.7,3.4-52.6-23.9-57.5-56c-0.9-6.1-9.5-4-10.1,1.2c0,1.5,0,2.8-0.3,4.3c-4.9-5.2-11.3-8.9-18.4-10.7c-8.6-1.8-15.9,1.8-20.5,8
			c-6.1-18.399-26-23.3-44.4-16.5c4.3-14.1,1.2-26.899-11.6-34.6c22-10.4,28.2-40.7,9.8-53.9c19.9-1.5,32.7-22.3,22.6-40.1
			c20.8,2.8,45-4.6,48.7-26.6c4,11,15,20.8,27.8,17.4c7-1.8,14.4-4.3,19-10.7c-1.2,1.8,15.9,13.8,19.3,14.7
			c19.3,4.9,30-12.9,44.399-4c17.101,10.8,34.9,14.4,45.9-2.4c8.3,15.3,25.4,21.7,41.3,14.4c4,19.9,24.5,40.4,43.5,31.2
			c-4.899,12.2,2.8,24.5,15.3,30.6C417.245,295.757,413.945,323.357,428.546,344.457z"/>
		<path d="M532.646,4.758c-15.3-6.7-28.8,0.3-33,13.8c-4-3.1-8.6-5.2-13.8-5.2c-6.7,0.3-12.9,4.9-15.601,11
			c-4.6,10.1-1.199,18.1,5.801,23.6c-39.2-5.8-78-37-117.5-44.4c-35.5-6.7-72.801-3.7-106.8,7c-43.1,13.8-100.7,48.3-93.6,98.5
			c-0.3,1.8-0.3,3.4-0.6,5.2c-19.3-17.4-53.6-13.2-64.9,13.5c-29.4-4.6-49.6,18.7-31.8,42.8c-17.4,12.2-40.1,37-19,50.8
			c-31.8,17.4-44.1,65.5-5.8,75c-8,6.7-15,15.6-12.5,26c4.6,18.399-2.4,19.899-8.9,36.7c-10.4,27.5,13.2,57.199,40.1,58.1
			c-35.8,30.6-3.7,75.9,39.8,64.9c-4.3,19.6,0,39.8,20.8,48.699c5.2,2.101,13.8,1.801,19-0.3c16.8-7,8.6-2.1,16.5,12.5
			c19,34,70.4,15.9,79.3-16.2c18.1,20.5,48,24.2,67.9,2.101c0,0,19,15.6,28.199,19.899c14.101,6.4,30.301,7,45.301,4.301
			c9.8-1.801,22.6-10.4,24.199-21.101c2.101-13.2,17.7,3.7,32.4,0.601c37-8,45.9-40.101,21.1-67.301c-2.1-2.399-6.399,0.9-4.6,3.4
			c15.6,15.3,11.9,33-10.7,53.5c-15,3.7-28.5,0.6-40.1-8.9c-2.8-1.8-7,0.601-7,4c3.1,49-71.3,25.7-83.8-2.399
			c-1.5-3.101-6.4-2.8-8,0c-15.3,30-44.7,23.6-64.3,5.5c0-0.3,0-0.3,0-0.601c0.3-2.399-1.8-3.399-4-3.1c-0.3-0.3-0.6-0.6-0.9-0.9
			c-1.2-1.5-3.7,0.301-2.8,2.101c0.3,0.3,0.6,0.899,0.9,1.2c-7.7,18.699-16.5,30.6-37.6,32.699c-21.1,2.101-34-15.6-34.3-34.899
			c0-3.101-3.7-5.5-6.4-3.7c-30.6,21.4-52.6-5.5-41-37.3c1.2-3.101-2.4-6.7-5.5-5.5c-43.1,16.5-67.6-22.3-37-55.101
			c1.5-1.5-0.6-4.6-2.4-3.399l0,0c-0.3-0.3-0.9-0.601-1.5-0.9c-34.3-4.6-56.9-47.7-21.7-70.7c1.5-1.199,2.8-3.399,1.5-5.199
			c4-12.9,8.3-26,12.2-38.9c4.3-2.4,2.1-8.6-2.4-8.9c-52.3-1.8-20.2-48.299,2.4-62.999c1.5,0.3,2.8-0.6,3.4-1.8
			c0.9-0.6,2.1-0.9,3.1-1.2c3.7-1.5,2.4-7-1.5-6.1c-1.5,0.3-2.8,0.6-4.3,1.2c-20.8-15.3,3.1-33.4,17.7-41.9c2.4-1.5,2.8-4.6,0.9-6.7
			c-17.4-20.8-0.9-38.2,21.1-37.6c0,0.3,0,0.3-0.3,0.6c-0.9,2.8,3.1,4.3,4.3,1.8c13.2-26.3,54.2-32.1,65.5-0.3
			c1.2,3.4,5.2,3.7,7,0.9c18.7-26.9,57.5-33,73.7-0.9c0,0.6,0,0.9-0.3,1.5c-0.3,2.8,4,3.1,4.6,0.6c1.5-5.2,4-10.1,6.7-14.4
			c1.2-0.6,1.8-1.8,2.1-3.1c5.8-7.3,14.1-11.9,25.4-10.4c19.3,2.8,22.3,22,23.6,37.9c0.3,3.7,5.5,4.9,6.4,0.9
			c0.3-0.9,0.3-1.8,0.6-2.4c0.9,1.2,3.101,1.5,3.7-0.3c6.1-31.2,31.5-14.7,36.7,5.8c0.899,4,6.1,3.4,7.3,0
			c6.1-17.7,23.9-26.9,41.9-27.8c21.399-1.2,30,14.7,30.6,33.4c-0.9,2.4,1.5,5.5,4.6,4c18.101-9.2,67.9,3.1,40.101,36.4
			c-1.8,2.4-1.5,6.4,1.8,7.3c25.4,5.8,31.5,25.7,25.7,47.4c-0.601,2.1,0.3,4,2.1,5.2c19.601,13.8,15.3,32.699,0.9,44.699
			c-4.3-1.2-7.7,4.9-3.4,7.601c24.2,15.6,19.3,39.8-2.8,52.899c-2.8,1.5-3.1,5.2-0.9,7.3c3.4,25.4-3.699,38.601-21.699,39.801
			c-3.7,0.6-4,5.199-2.101,7.699c20.5,24.5,8,45.601-18.7,51.4c-3.699,0.9-3.1,7.3,0.9,6.7c33.7-4.3,45.6-32.4,28.8-58.8
			c12.5-3.4,21.4-9.5,28.8-21.4c2.4-4-0.899-30.9-3.699-29.1c24.8-15.301,21.399-46.5,0.6-61.2c15.3-9.2,23-31.8,9.2-46.8
			c-10.7-11.6-4.3-26.3-9.5-41c-4.3-11.6-14.7-17.4-25.7-20.2c17.4-30-18.101-57.5-48.3-45c0.3-3.4,0.3-6.4,0-9.2
			c0.6-0.3,1.2-0.3,1.8-0.9c20.8-17.1,44.7-41.3,54.2-68.2c1.5,3.4,3.399,6.7,5.5,8.9c6.7,7,17.1,8.6,26.6,7.3
			c8.6-1.2,17.1-6.4,20.5-14.7c3.4-8-0.6-16.2-6.7-21.4C554.646,37.858,551.945,13.358,532.646,4.758z M537.245,70.558
			c-2.8,4.9-9.199,7-14.399,8c-5.8,0.9-12.5-0.6-16.8-4.6c-7-7-3.101-16.2-5.2-24.5c-0.9-3.7-5.5-3.7-7.3-0.9
			c0,0.3-0.301,0.3-0.301,0.6c-8.899-3.1-18.399-8.9-15-19.3c3.7-11.6,16.2-2.1,20.5,3.1c2.801,3.1,8.301,0.6,8-3.4
			c-0.899-13.5,8.601-21.7,21.4-15.9c5.5,2.4,9.8,7,11.6,12.5c2.801,8.6-2.399,15.9-6.1,23c0,0,0,0,0,0.3c-3.1,0-4.9,4.3-2.8,6.7
			C535.346,59.558,540.245,64.758,537.245,70.558z"/>
		<path d="M150.146,258.458c-18.7,2.4-22.6,22-14.7,36.7c1.8,3.7,7,0.9,6.1-2.8c-1.8-8.9-1.2-20.5,9.5-22.3
			c11.3-2.1,12.5,13.8,13.2,20.8c0.6,6.1,9.8,8.6,11.6,1.5C178.846,276.258,168.146,256.058,150.146,258.458z"/>
		<path d="M387.546,261.558c-5.5-5.5-14.101-6.4-21.4-4.6c-6.7,1.8-12.9,6.4-16.5,12.2c-1.5,2.4-2.1,6.1-1.5,8.9
			c0.6,3.699,3.1,3.699,5.2,5.5c1.5,1.199,4-0.301,2.8-2.101c-1.2-1.799,1.5-5.799,2.8-7.299c2.8-3.1,6.7-4.6,10.4-5.5
			c12.5-3.1,11.3,11.6,15,19c1.8,3.4,7.3,3.4,8.899,0C397.646,279.258,394.346,267.958,387.546,261.558z"/>
	</g>
</g>
</svg>