<?xml version="1.0" encoding="iso-8859-1"?>
<!-- Uploaded to: SVG Repo, www.svgrepo.com, Generator: SVG Repo Mixer Tools -->
<!DOCTYPE svg PUBLIC "-//W3C//DTD SVG 1.1//EN" "http://www.w3.org/Graphics/SVG/1.1/DTD/svg11.dtd">
<svg fill="#000000" height="800px" width="800px" version="1.1" id="Capa_1" xmlns="http://www.w3.org/2000/svg" xmlns:xlink="http://www.w3.org/1999/xlink" 
	 viewBox="0 0 249.606 249.606" xml:space="preserve">
<g>
	<path d="M248.848,110.803c-2.76-29.462-15.922-50.358-36.846-70.892c-22.462-22.045-50.005-28.324-80.624-30.423
		c-0.283-0.019-0.528,0.017-0.737,0.095C80.354,5.875,30.368,34.624,9.875,81.141c-18.985,43.093-10.401,93.858,24.068,126.52
		c38.294,36.286,100.548,38.884,148.763,24.612C236.23,216.43,253.633,161.89,248.848,110.803z M245.048,143.111
		c-2.848,31.195-16.951,62.783-45.598,78.173c-28.248,15.176-66.852,18.15-97.929,12.688c-19.366-3.404-37.368-10.602-52.529-21.002
		c3.485,0.427,6.976,0.803,10.477,1.073c0.867,0.067,1.081-1.398,0.208-1.535c-4.56-0.715-9.141-1.272-13.735-1.715
		c-4.451-3.266-8.598-6.852-12.472-10.678c4.191,0.133,8.264,0.784,12.42,1.301c0.945,0.117,1.096-1.386,0.22-1.629
		c-4.212-1.167-8.75-1.386-13.098-1.404c-0.42-0.002-0.628,0.265-0.724,0.571c-3.56-3.627-6.836-7.498-9.816-11.584
		c4.638,0.273,9.279,0.607,13.925,0.622c1.135,0.004,1.093-1.631,0-1.735c-4.953-0.468-9.938-0.571-14.908-0.775
		c-0.12-0.005-0.174,0.074-0.27,0.104c-2.527-3.627-4.742-7.469-6.771-11.425c0.117-0.035,0.236-0.067,0.336-0.159
		c0.067-0.062,0.134-0.123,0.2-0.185c0.144-0.133,0.192-0.297,0.203-0.46c0.917,0.271,2.04,0.49,2.231,0.513
		c1.423,0.176,2.847,0.346,4.271,0.514c2.648,0.312,5.265,0.634,7.933,0.703c1.01,0.026,1.272-1.599,0.243-1.797
		c-3.307-0.636-6.657-0.906-10.006-1.231c-1.968-0.191-4.713-1.065-6.451,0.113c-2.368-4.892-4.297-10.046-5.843-15.396
		c4.625,0.475,9.28,0.667,13.926,0.658c1.19-0.003,1.134-1.69,0-1.811c-4.722-0.506-9.477-0.816-14.229-0.814
		c-0.108,0-0.151,0.073-0.24,0.097c-1.416-5.293-2.386-10.808-2.926-16.509c1.939,0.228,3.943,0.168,5.873-0.069
		c0.99-0.122,0.993-1.422,0-1.544c-1.977-0.242-4.033-0.311-6.016-0.062c-0.333-4.251-0.33-8.64-0.14-13.101
		c7.692,1.148,15.375,2.345,23.114,3.134c0.911,0.093,1.128-1.451,0.218-1.61c-7.714-1.349-15.487-2.283-23.254-3.272
		c0.058-0.976,0.043-1.924,0.129-2.91c0.332-3.831,0.857-7.556,1.525-11.196c4.406,0.298,8.83,0.538,13.238,0.638
		c0.951,0.022,0.936-1.408,0-1.468c-4.32-0.274-8.665-0.415-13-0.498c0.921-4.709,2.146-9.235,3.597-13.614
		c0.129,0.121,0.296,0.202,0.509,0.183c8.624-0.743,17.174-0.867,25.822-0.488c1.173,0.051,1.121-1.67,0-1.792
		c-8.631-0.939-17.288-0.655-25.867,0.686c2.799-8.076,6.55-15.515,10.964-22.423c0.003,0,0.004,0.003,0.007,0.004
		c4.728,0.548,9.468,1.258,14.224,1.48c0.684,0.032,0.862-1.108,0.165-1.217c-4.532-0.709-9.135-0.985-13.706-1.37
		c2.97-4.525,6.274-8.777,9.847-12.779c7.795-0.133,15.581,0.148,23.373,0.383c1.102,0.033,1.046-1.559,0-1.678
		C47.516,53,40.324,52.967,33.104,53.251c4.943-5.287,10.413-10.064,16.271-14.374c6.81,1.854,13.84,3.026,20.915,2.598
		c1.122-0.068,1.135-1.711,0-1.754c-6.503-0.247-12.87-0.718-19.227-2.058c5.314-3.774,10.967-7.124,16.86-10.094
		c5.724,0.582,11.536,0.948,17.276,0.42c1.224-0.112,1.273-1.951,0-1.944c-4.666,0.026-9.309,0.083-13.962-0.041
		c4.692-2.21,9.539-4.158,14.498-5.865c4.479,1.188,9.06,2.279,13.706,2.438c1.07,0.036,1.329-1.666,0.256-1.891
		c-3.275-0.686-6.568-1.235-9.849-1.868c12.831-4.004,26.367-6.37,40.145-6.89c0.258,0.495,0.708,0.903,1.387,0.991
		c35.522,4.585,62.017,11.437,86.606,39.298C241.416,78.765,248.232,108.228,245.048,143.111z"/>
	<path d="M220.191,146.993c-26.133-19.84-56.31-36.262-87.145-47.499c-0.474-0.804-1.339-1.308-2.321-1.034
		c-9.059,2.53-17.164,15.407-19.939,23.631c-3.654,10.83-1.976,22.414,5.664,30.999c0.601,0.675,1.495,0.439,1.99-0.125
		c33.832,0.593,67.913-0.027,101.65-2.709c0.382-0.03,0.672-0.185,0.916-0.381c0.04-0.031,0.079-0.059,0.116-0.095
		c0.1-0.097,0.183-0.2,0.255-0.317l0,0C221.968,148.498,221.598,147.018,220.191,146.993z M118.295,150.88
		c-1.888-3.109-3.298-6.366-4.179-9.719c6.852,0.281,13.705,0.598,20.563,0.532c1.002-0.01,0.984-1.479,0-1.544
		c-6.963-0.463-13.945-0.534-20.923-0.646c-0.446-2.153-0.637-4.345-0.622-6.557c4.017,0.056,8.045,0.186,12.056-0.012
		c1.03-0.051,1.031-1.55,0-1.601c-3.992-0.197-8.001-0.069-11.999-0.013c0.118-1.927,0.437-3.87,0.942-5.822
		c5.257,0.136,10.575,0.423,15.802,0.01c1.065-0.084,1.067-1.574,0-1.659c-5.073-0.401-10.23-0.143-15.335-0.003
		c0.727-2.246,1.768-4.376,2.926-6.439c5.516,0.056,10.969,0.527,16.47,0.871c1.301,0.081,1.228-1.823,0-1.983
		c-5.091-0.659-10.293-0.718-15.433-0.655c0.24-0.381,0.432-0.794,0.684-1.166c1.645-2.431,3.962-4.546,6.043-6.801
		c3.782,0.487,7.606,1.16,11.426,0.977c1.027-0.049,1.299-1.551,0.248-1.835c-3.183-0.86-6.502-1.115-9.794-1.377
		c1.046-1.37,1.938-2.825,2.457-4.475c-0.369,1.172,0.878,2.473,2.029,2.224c29.188,12.952,56.447,27.321,83.563,43.985
		C182.907,148.419,150.619,149.894,118.295,150.88z"/>
	<path d="M52.964,157.482c-2.85-0.817-5.915-1.235-8.988-1.541c0.354-1.83,0.812-3.642,0.913-5.495
		c0.052-0.955-1.398-1.362-1.829-0.495c-0.866,1.737-1.336,3.712-1.548,5.763c-1.726-0.147-3.44-0.287-5.098-0.453
		c-1.302-0.13-1.618,2.093-0.312,2.303c1.72,0.276,3.493,0.594,5.279,0.906c-0.002,2.692,0.331,5.399,0.759,7.787
		c0.14,0.779,1.434,0.604,1.385-0.187c-0.147-2.402-0.138-4.825,0.065-7.227c3.049,0.49,6.118,0.871,9.08,0.811
		C53.912,159.629,54.178,157.83,52.964,157.482z"/>
	<path d="M84.756,184.154c-1.796-0.388-3.606-0.614-5.421-0.775c-0.439-2.842-1.087-5.655-1.764-8.192
		c-0.399-1.494-2.535-0.845-2.279,0.628c0.425,2.447,0.67,4.9,0.889,7.353c-3.085-0.105-6.184-0.002-9.279,0.162
		c-1.265,0.067-1.285,2.001,0,1.982c3.176-0.045,6.338,0.106,9.5,0.265c0.205,2.412,0.414,4.823,0.76,7.224
		c0.227,1.573,2.419,0.985,2.565-0.347c0.233-2.133,0.116-4.421-0.127-6.724c1.64,0.073,3.28,0.132,4.924,0.146
		C85.492,185.884,85.741,184.366,84.756,184.154z"/>
	<path d="M125.642,199.04c-1.997,0.648-3.915,1.468-5.814,2.335c-0.439-0.607-0.879-1.208-1.297-1.801
		c-1.833-2.603-3.766-5.126-5.762-7.605c-0.571-0.71-1.807,0.233-1.272,0.982c1.912,2.677,3.762,5.4,5.526,8.177
		c0.251,0.395,0.487,0.809,0.727,1.218c-0.726,0.343-1.454,0.677-2.182,1.02c-1.9,0.895-5.756,1.709-6.459,3.921
		c-0.101,0.318-0.005,0.79,0.266,1.007c0.518,0.413,0.833,0.537,1.497,0.359c0.43-0.115,0.72-0.523,0.731-0.96
		c0.001-0.049,0.003-0.098,0.004-0.148c0.87-0.529,2.331-0.9,2.979-1.181c1.274-0.551,2.547-1.102,3.82-1.653
		c0.193-0.083,0.381-0.171,0.573-0.254c0.862,1.498,1.76,2.975,2.879,4.243c0.654,0.741,2.028-0.039,1.689-0.983
		c-0.537-1.493-1.36-2.911-2.273-4.279c1.745-0.785,3.47-1.603,5.132-2.587C127.35,200.293,126.737,198.685,125.642,199.04z"/>
	<path d="M179.593,203.748c-2.485-2.685-6.116-4.48-9.157-6.483c-0.208-0.137-0.419-0.27-0.627-0.407
		c2.218-2.295,4.653-4.402,7.345-6.328c1.118-0.8,0.143-2.582-1.097-1.876c-3.157,1.797-5.93,4.155-8.358,6.836
		c-2.543-1.658-5.087-3.315-7.641-4.957c-1.1-0.707-2.038,0.99-1.01,1.728c2.37,1.704,4.751,3.392,7.131,5.081
		c-2.027,2.534-3.816,5.266-5.218,8.176c-0.58,1.205,1.195,2.269,1.811,1.058c1.482-2.916,3.311-5.478,5.35-7.85
		c0.345,0.243,0.685,0.492,1.031,0.734c2.999,2.106,5.968,4.753,9.392,6.088C179.613,205.964,180.262,204.471,179.593,203.748z"/>
	<path d="M212.61,170.332c-1.8,0.124-3.517,0.663-5.238,1.188c-0.749-2.174-1.64-4.267-2.492-6.085
		c-0.504-1.076-2.175-0.308-1.881,0.793c0.539,2.018,1.132,4.02,1.663,6.04c-2.178,0.559-4.372,1.043-6.558,1.573
		c-1.231,0.298-1.003,2.44,0.307,2.265c2.133-0.284,4.533-0.601,6.901-1.073c0.395,2.095,0.65,4.262,1.398,6.221
		c0.479,1.253,2.306,1.099,2.378-0.322c0.105-2.084-0.265-4.36-0.867-6.629c1.775-0.501,3.487-1.097,4.934-1.965
		C214.024,171.817,213.715,170.256,212.61,170.332z"/>
	<path d="M104.858,82.76c-1.227-1.28-2.771-1.572-4.194-1.241c-0.242-0.21-0.541-0.338-0.934-0.191
		c-4.652,1.728-5.173,8.555,0.078,9.963C104.847,92.642,108.486,86.544,104.858,82.76z"/>
	<path d="M147.013,74.413c-0.251-0.06-0.497-0.059-0.746-0.082c-0.253-0.118-0.496-0.254-0.77-0.328
		c-1.508-0.407-3.017,0.038-4.182,0.924c-2.833,1.391-2.701,5.256-0.419,7.278c0.44,0.39,0.955,0.7,1.496,0.97
		c1.092,0.766,2.478,1.097,3.776,0.8c1.509-0.071,2.971-0.586,4.039-1.696C152.999,79.378,150.363,75.21,147.013,74.413z"/>
</g>
</svg>